<svg width="1200" height="900" viewBox="0 0 1200 900" fill="none" xmlns="http://www.w3.org/2000/svg">
  <rect width="1200" height="900" fill="#0D0B10"/>
  <rect x="40" y="40" width="1120" height="820" rx="36" fill="url(#paint0_linear)"/>
  <rect x="76" y="76" width="1048" height="748" rx="28" fill="#120F14" fill-opacity="0.82" stroke="#FFFFFF" stroke-opacity="0.12"/>
  <text x="108" y="168" fill="#F6D0CB" font-family="Arial, Helvetica, sans-serif" font-size="28" letter-spacing="10">ORACLE EVENT</text>
  <text x="108" y="286" fill="white" font-family="Georgia, 'Times New Roman', serif" font-size="86">JavaOne 2026</text>
  <text x="108" y="352" fill="#E7E5EA" font-family="Arial, Helvetica, sans-serif" font-size="34">March 17-19, 2026</text>
  <text x="108" y="404" fill="#E7E5EA" font-family="Arial, Helvetica, sans-serif" font-size="34">Oracle Conference Center, Redwood Shores</text>
  <rect x="108" y="492" width="404" height="118" rx="22" fill="#C74634"/>
  <text x="142" y="548" fill="white" font-family="Arial, Helvetica, sans-serif" font-size="28">Developer sessions</text>
  <text x="142" y="586" fill="#FDE5E1" font-family="Arial, Helvetica, sans-serif" font-size="22">Public Oracle event sample card</text>
  <circle cx="932" cy="250" r="134" fill="#F3B239" fill-opacity="0.18"/>
  <circle cx="992" cy="304" r="214" fill="#C74634" fill-opacity="0.14"/>
  <path d="M846 584C912 506 1020 488 1098 536" stroke="#F3B239" stroke-width="18" stroke-linecap="round"/>
  <path d="M846 662C924 614 1040 614 1106 680" stroke="#C74634" stroke-width="18" stroke-linecap="round"/>
  <path d="M846 740C906 706 1008 716 1088 780" stroke="#FFFFFF" stroke-opacity="0.24" stroke-width="18" stroke-linecap="round"/>
  <defs>
    <linearGradient id="paint0_linear" x1="96" y1="70" x2="1108" y2="842" gradientUnits="userSpaceOnUse">
      <stop stop-color="#4A1610"/>
      <stop offset="0.55" stop-color="#1A1114"/>
      <stop offset="1" stop-color="#25140D"/>
    </linearGradient>
  </defs>
</svg>
